<svg width="111" height="15" viewBox="0 0 111 15" fill="none" xmlns="http://www.w3.org/2000/svg">
<path d="M87 5.55H81.275L79.5 0L77.725 5.55H72L76.625 8.975L74.875 14.5L79.5 11.075L84.125 14.5L82.35 8.95L87 5.55Z" fill="#FFCE31"/>
<path d="M63 5.55H57.275L55.5 0L53.725 5.55H48L52.625 8.975L50.875 14.5L55.5 11.075L60.125 14.5L58.35 8.95L63 5.55Z" fill="#FFCE31"/>
<path d="M39 5.55H33.275L31.5 0L29.725 5.55H24L28.625 8.975L26.875 14.5L31.5 11.075L36.125 14.5L34.35 8.95L39 5.55Z" fill="#FFCE31"/>
<path d="M15 5.55H9.275L7.5 0L5.725 5.55H0L4.625 8.975L2.875 14.5L7.5 11.075L12.125 14.5L10.35 8.95L15 5.55Z" fill="#FFCE31"/>
<path d="M111 5.55H105.275L103.5 0L101.725 5.55H96L100.625 8.975L98.875 14.5L103.5 11.075L108.125 14.5L106.35 8.95L111 5.55Z" fill="#FFCE31"/>
</svg>
